HIERARCHY
ROOT Hips
{
	OFFSET 0.000000 0.000000 0.000000
	CHANNELS 6 Xposition Yposition Zposition Zrotation Yrotation Xrotation 
	JOINT LHipJoint
	{
		OFFSET 0.000000 0.000000 0.000000
		CHANNELS 3 Zrotation Yrotation Xrotation
		JOINT LeftUpLeg
		{
			OFFSET 1.363060 -1.794630 0.839290
			CHANNELS 3 Zrotation Yrotation Xrotation
			JOINT LeftLeg
			{
				OFFSET 2.448110 -6.726130 0.000000
				CHANNELS 3 Zrotation Yrotation Xrotation
				JOINT LeftFoot
				{
					OFFSET 2.562200 -7.039590 0.000000
					CHANNELS 3 Zrotation Yrotation Xrotation
					JOINT LeftToeBase
					{
						OFFSET 0.157640 -0.433110 2.322550
						CHANNELS 3 Zrotation Yrotation Xrotation
						End Site
						{
							OFFSET 0.000000 0.000000 0.000000
						}
					}
				}
			}
		}
	}
	JOINT RHipJoint
	{
		OFFSET 0.000000 0.000000 0.000000
		CHANNELS 3 Zrotation Yrotation Xrotation
		JOINT RightUpLeg
		{
			OFFSET -1.305520 -1.794630 0.839290
			CHANNELS 3 Zrotation Yrotation Xrotation
			JOINT RightLeg
			{
				OFFSET -2.542530 -6.985550 0.000000
				CHANNELS 3 Zrotation Yrotation Xrotation
				JOINT RightFoot
				{
					OFFSET -2.568260 -7.056230 0.000000
					CHANNELS 3 Zrotation Yrotation Xrotation
					JOINT RightToeBase
					{
						OFFSET -0.164730 -0.452590 2.363150
						CHANNELS 3 Zrotation Yrotation Xrotation
						End Site
						{
							OFFSET 0.000000 0.000000 0.000000
						}
					}
				}
			}
		}
	}
	JOINT LowerBack
	{
		OFFSET 0.000000 0.000000 0.000000
		CHANNELS 3 Zrotation Yrotation Xrotation
		JOINT Spine
		{
			OFFSET 0.028270 2.035590 -0.193380
			CHANNELS 3 Zrotation Yrotation Xrotation
			JOINT Spine1
			{
				OFFSET 0.056720 2.048850 -0.042750
				CHANNELS 3 Zrotation Yrotation Xrotation
				JOINT Neck
				{
					OFFSET 0.000000 0.000000 0.000000
					CHANNELS 3 Zrotation Yrotation Xrotation
					JOINT Neck1
					{
						OFFSET -0.054170 1.746240 0.172020
						CHANNELS 3 Zrotation Yrotation Xrotation
						JOINT Head
						{
							OFFSET 0.104070 1.761360 -0.123970
							CHANNELS 3 Zrotation Yrotation Xrotation
							End Site
							{
								OFFSET 0.000000 0.000000 0.000000
							}
						}
					}
				}
				JOINT LeftShoulder
				{
					OFFSET 0.000000 0.000000 0.000000
					CHANNELS 3 Zrotation Yrotation Xrotation
					JOINT LeftArm
					{
						OFFSET 3.362410 1.200890 -0.311210
						CHANNELS 3 Zrotation Yrotation Xrotation
						JOINT LeftForeArm
						{
							OFFSET 4.983000 -0.000000 -0.000000
							CHANNELS 3 Zrotation Yrotation Xrotation
							JOINT LeftHand
							{
								OFFSET 3.483560 -0.000000 -0.000000
								CHANNELS 3 Zrotation Yrotation Xrotation
								JOINT LeftFingerBase
								{
									OFFSET 0.000000 0.000000 0.000000
									CHANNELS 3 Zrotation Yrotation Xrotation
									JOINT LeftHandIndex1
									{
										OFFSET 0.715260 -0.000000 -0.000000
										CHANNELS 3 Zrotation Yrotation Xrotation
										End Site
										{
											OFFSET 0.000000 0.000000 0.000000
										}
									}
								}
								JOINT LThumb
								{
									OFFSET 0.000000 0.000000 0.000000
									CHANNELS 3 Zrotation Yrotation Xrotation
									End Site
									{
										OFFSET 0.000000 0.000000 0.000000
									}
								}
							}
						}
					}
				}
				JOINT RightShoulder
				{
					OFFSET 0.000000 0.000000 0.000000
					CHANNELS 3 Zrotation Yrotation Xrotation
					JOINT RightArm
					{
						OFFSET -3.136600 1.374050 -0.404650
						CHANNELS 3 Zrotation Yrotation Xrotation
						JOINT RightForeArm
						{
							OFFSET -5.241900 -0.000000 -0.000000
							CHANNELS 3 Zrotation Yrotation Xrotation
							JOINT RightHand
							{
								OFFSET -3.444170 -0.000000 -0.000000
								CHANNELS 3 Zrotation Yrotation Xrotation
								JOINT RightFingerBase
								{
									OFFSET 0.000000 0.000000 0.000000
									CHANNELS 3 Zrotation Yrotation Xrotation
									JOINT RightHandIndex1
									{
										OFFSET -0.622530 -0.000000 -0.000000
										CHANNELS 3 Zrotation Yrotation Xrotation
										End Site
										{
											OFFSET 0.000000 0.000000 0.000000
										}
									}
								}
								JOINT RThumb
								{
									OFFSET 0.000000 0.000000 0.000000
									CHANNELS 3 Zrotation Yrotation Xrotation
									End Site
									{
										OFFSET 0.000000 0.000000 0.000000
									}
								}
							}
						}
					}
				}
			}
		}
	}
}
MOTION
Frames: 8
Frame Time: 0.033333
-0.144879 17.098999 -0.144879 -4.238267 -9.212406 4.080720 -3.167242 18.697365 5.088439 -13.306344 -4.291113 -14.059816 -5.488828 -10.174124 -31.480344 2.330493 18.192127 37.815561 0.000000 0.000000 0.000000 -0.610025 -24.177353 -15.987341 43.774211 4.728057 2.246569 -16.627484 -1.041146 31.013272 -0.669988 11.889303 -26.088242 0.000000 0.000000 0.000000 -0.433030 1.790121 16.053269 3.118829 2.180914 -2.179323 3.080749 2.516955 -7.683718 -3.502442 0.470702 0.276522 3.697184 -0.085844 3.748947 0.000000 0.000000 0.000000 1.586101 13.415452 11.389382 -71.424631 -6.603891 2.704275 -167.116104 -87.329621 179.965181 5.890098 -11.211611 -0.023028 5.961766 -11.182775 0.000000 0.000000 0.000000 0.000000 0.000000 0.000000 0.000000 5.960934 -15.451697 2.221781 54.109942 10.822684 0.822318 18.359664 10.722993 0.029298 0.550511 4.420294 0.014596 0.549171 4.420741 0.000000 0.000000 0.000000 0.000000 0.000000 0.000000 0.000000 
-0.129178 17.133613 0.019554 -4.064846 -9.103470 4.371402 -2.717958 18.777162 4.721246 -14.156160 -4.328434 -13.745539 -5.673211 -9.796047 -30.150339 1.856628 17.010797 35.418271 0.000000 0.000000 0.000000 -0.975091 -24.088624 -15.186936 42.892439 5.058560 1.639624 -15.282439 -1.451400 31.042965 -0.760350 12.158178 -26.909484 0.000000 0.000000 0.000000 -0.330669 1.778836 15.818623 2.908092 2.108636 -2.120310 2.866571 2.473121 -7.873241 -3.601388 0.477568 0.547479 3.815568 -0.098131 3.907886 0.000000 0.000000 0.000000 1.485657 13.663881 11.334779 -71.236079 -6.386955 3.840096 -168.137246 -87.723706 179.996534 5.730801 -11.413611 -0.007308 5.801299 -11.386076 0.000000 0.000000 0.000000 0.000000 0.000000 0.000000 0.000000 5.909431 -15.762086 2.238313 54.280548 10.804209 0.923616 18.770521 11.221104 0.030970 0.568782 4.500153 0.015429 0.567376 4.500632 0.000000 0.000000 0.000000 0.000000 0.000000 0.000000 0.000000 
-0.111242 17.170047 0.183409 -3.880530 -8.963227 4.672081 -2.294496 18.852045 4.328435 -14.996922 -4.388904 -13.472169 -5.853820 -9.382710 -28.695380 1.428382 15.794296 32.956456 0.000000 0.000000 0.000000 -1.297030 -23.951137 -14.359325 41.919273 5.416697 0.962258 -13.901242 -1.880937 31.047218 -0.828546 12.388169 -27.667621 0.000000 0.000000 0.000000 -0.238903 1.757320 15.572956 2.708866 2.026573 -2.060596 2.655640 2.419139 -8.067953 -3.694725 0.481828 0.818100 3.924825 -0.110954 4.065507 0.000000 0.000000 0.000000 1.383117 13.909397 11.274202 -71.041473 -6.172463 4.976231 -169.168968 -88.136204 -179.971950 5.564484 -11.611779 0.008494 5.633692 -11.585605 0.000000 0.000000 0.000000 0.000000 0.000000 0.000000 0.000000 5.855602 -16.075465 2.258873 54.439335 10.777999 1.032949 19.193708 11.739494 0.032775 0.587995 4.582388 0.016328 0.586519 4.582900 0.000000 0.000000 0.000000 0.000000 0.000000 0.000000 0.000000 
-0.091122 17.207852 0.346286 -3.686213 -8.792480 4.981567 -1.902585 18.926468 3.914175 -15.821722 -4.474695 -13.247676 -6.031044 -8.931601 -27.120056 1.047458 14.554723 30.452068 0.000000 0.000000 0.000000 -1.573130 -23.770058 -13.507032 40.856405 5.795004 0.219108 -12.486478 -2.326476 31.018060 -0.875758 12.582470 -28.366632 0.000000 0.000000 0.000000 -0.156608 1.725718 15.317423 2.520902 1.935038 -2.000046 2.448029 2.355297 -8.267504 -3.782654 0.483575 1.088591 4.025320 -0.124223 4.221657 0.000000 0.000000 0.000000 1.278581 14.151983 11.207895 -70.841247 -5.961064 6.111487 -170.212235 -88.567247 -179.940297 5.391280 -11.805732 0.024365 5.459069 -11.780977 0.000000 0.000000 0.000000 0.000000 0.000000 0.000000 0.000000 5.799747 -16.391583 2.283447 54.586053 10.743986 1.150714 19.628924 12.278804 0.034724 0.608162 4.667095 0.017297 0.606614 4.667643 0.000000 0.000000 0.000000 0.000000 0.000000 0.000000 0.000000 
-0.069385 17.246622 0.507823 -3.482831 -8.592012 5.298945 -1.548043 19.003813 3.483170 -16.623579 -4.588224 -13.079455 -6.199173 -8.441384 -25.431324 0.713544 13.303668 27.929289 0.000000 0.000000 0.000000 -1.800626 -23.549550 -12.632616 39.703744 6.186066 -0.585792 -11.033919 -2.787873 30.949733 -0.902165 12.742005 -29.011227 0.000000 0.000000 0.000000 -0.082603 1.684230 15.052950 2.343926 1.834327 -1.938565 2.243822 2.281859 -8.471553 -3.865373 0.482900 1.359155 4.117420 -0.137856 4.376195 0.000000 0.000000 0.000000 1.172142 14.391615 11.136114 -70.635847 -5.753419 7.244617 -171.268025 -89.017005 -179.908534 5.211343 -11.995088 0.040291 5.277579 -11.971807 0.000000 0.000000 0.000000 0.000000 0.000000 0.000000 0.000000 5.742171 -16.710204 2.311999 54.720475 10.702104 1.277321 20.075817 12.839683 0.036823 0.629297 4.754371 0.018342 0.627675 4.754958 0.000000 0.000000 0.000000 0.000000 0.000000 0.000000 0.000000 
-0.045605 17.285842 0.668194 -3.111993 -8.382430 5.466335 -1.353750 19.122715 3.155923 -17.403101 -4.712185 -12.950889 -6.371382 -7.922414 -23.630489 0.472238 11.985237 25.434398 0.000000 0.000000 0.000000 -1.510514 -23.823030 -11.777813 39.093908 7.527058 -1.873792 -11.733029 -2.820893 32.876779 -0.826030 12.513608 -28.799065 0.000000 0.000000 0.000000 -0.199537 1.646884 14.594432 2.165949 1.692233 -1.553290 1.697386 2.191824 -8.305593 -2.885727 0.384047 0.646815 3.890125 -0.119801 4.277584 0.000000 0.000000 0.000000 1.349390 14.541902 10.811759 -70.508357 -5.619291 8.465341 -172.297315 -89.627745 -179.871140 5.053885 -12.183218 0.059016 5.118381 -12.161285 0.000000 0.000000 0.000000 0.000000 0.000000 0.000000 0.000000 3.987723 -16.643759 3.265210 56.697553 10.604767 2.046656 22.464117 17.328941 0.050057 0.655836 5.399780 0.024918 0.653517 5.400599 0.000000 0.000000 0.000000 0.000000 0.000000 0.000000 0.000000 
-0.020165 17.325220 0.827123 -2.750177 -8.125152 5.624087 -1.188767 19.244008 2.828658 -18.143878 -4.868981 -12.874891 -6.529595 -7.369627 -21.726683 0.268091 10.683559 22.955912 0.000000 0.000000 0.000000 -1.240986 -24.035735 -10.919714 38.414470 8.804821 -3.152494 -12.340296 -2.868230 34.673952 -0.722566 12.211641 -28.497774 0.000000 0.000000 0.000000 -0.278284 1.590959 14.107990 2.010297 1.544957 -1.132230 1.182389 2.097791 -8.124539 -2.006217 0.296544 -0.043632 3.672209 -0.101201 4.134222 0.000000 0.000000 0.000000 1.441224 14.642954 10.492450 -70.346677 -5.502166 9.642473 6.660094 -89.733984 0.165571 4.892277 -12.356978 0.077406 4.954881 -12.336445 0.000000 0.000000 0.000000 0.000000 0.000000 0.000000 0.000000 2.447250 -16.469744 4.282831 58.339745 10.296924 3.153560 24.934592 22.935527 0.069843 0.691817 6.174194 0.034743 0.688584 6.175336 0.000000 0.000000 0.000000 0.000000 0.000000 0.000000 0.000000 
0.006120 17.364400 0.984598 -2.400096 -7.821733 5.768405 -1.054711 19.369850 2.508202 -18.840847 -5.060322 -12.852896 -6.662298 -6.784898 -19.728829 0.097036 9.404870 20.512068 0.000000 0.000000 0.000000 -0.994657 -24.198622 -10.062654 37.675996 10.010757 -4.413250 -12.855339 -2.938843 36.350977 -0.594403 11.842965 -28.118879 0.000000 0.000000 0.000000 -0.316910 1.523978 13.592005 1.870815 1.399100 -0.671101 0.718806 2.006492 -7.941671 -1.233222 0.218752 -0.692343 3.455696 -0.082324 3.943896 0.000000 0.000000 0.000000 1.441024 14.673318 10.191378 -70.159370 -5.399417 10.773334 5.598073 -89.067233 0.201427 4.726512 -12.515456 0.095377 4.787088 -12.496367 0.000000 0.000000 0.000000 0.000000 0.000000 0.000000 0.000000 1.155181 -16.175481 5.322592 59.695243 9.777417 4.706373 27.207534 29.665435 0.099274 0.731069 7.082591 0.049350 0.726748 7.084172 0.000000 0.000000 0.000000 0.000000 0.000000 0.000000 0.000000 
